<svg width="1085" height="308" viewBox="0 0 1085 308" fill="none" xmlns="http://www.w3.org/2000/svg">
<path d="M77.7302 63.497H220.055C220.788 63.497 221.386 64.0946 221.386 64.8302V173.133L283.676 232.37C284.447 228.379 284.883 224.269 284.883 220.055V64.8302C284.883 29.0821 255.801 0 220.055 0H64.8302C59.7779 0 54.8814 0.638764 50.1588 1.7373L77.7302 63.497Z" fill="#3C1663"/>
<path d="M298.893 307.9L221.72 190.331H152.62V221.388H64.8302C64.0946 221.388 63.497 220.791 63.497 220.055V94.7267L0 78.2422V220.055C0 255.803 29.0821 284.886 64.8302 284.886L214.739 284.886L229.846 307.9H298.893Z" fill="#3C1663"/>
<path d="M374.718 163.004C378.445 163.004 382.037 162.563 385.495 161.679L390.798 170.939H407.396L398.54 155.762C403.561 152.24 407.55 147.712 410.509 142.179C413.454 136.646 414.927 130.518 414.927 123.794C414.927 118.235 413.928 113.08 411.93 108.328C409.92 103.564 407.102 99.4207 403.477 95.8986C399.84 92.3636 395.581 89.6164 390.702 87.6568C385.809 85.6844 380.481 84.6982 374.718 84.6982C368.941 84.6982 363.613 85.6844 358.734 87.6568C353.841 89.6164 349.576 92.3636 345.939 95.8986C342.314 99.4207 339.503 103.564 337.505 108.328C335.494 113.08 334.489 118.235 334.489 123.794C334.489 129.365 335.507 134.527 337.543 139.278C339.58 144.03 342.417 148.186 346.054 151.747C349.679 155.307 353.937 158.074 358.83 160.046C363.709 162.018 369.005 163.004 374.718 163.004ZM374.718 148.75C370.094 148.75 365.932 147.68 362.23 145.541C358.541 143.402 355.628 140.463 353.489 136.723C351.35 132.996 350.281 128.686 350.281 123.794C350.281 118.901 351.35 114.591 353.489 110.864C355.628 107.137 358.541 104.217 362.23 102.104C365.932 100.003 370.094 98.9532 374.718 98.9532C379.328 98.9532 383.484 100.003 387.186 102.104C390.887 104.217 393.807 107.137 395.946 110.864C398.085 114.591 399.155 118.901 399.155 123.794C399.155 127.726 398.425 131.325 396.965 134.591C395.504 137.844 393.551 140.559 391.105 142.736L384.496 131.44H368.205L377.964 148.538C376.876 148.679 375.793 148.75 374.718 148.75ZM479.689 163.004C485.658 163.004 490.986 161.749 495.673 159.239C500.361 156.716 504.043 153.271 506.72 148.903C509.397 144.523 510.735 139.547 510.735 133.976V85.9278H494.963V132.958C494.963 135.942 494.303 138.638 492.984 141.046C491.652 143.466 489.852 145.355 487.585 146.713C485.306 148.071 482.674 148.75 479.689 148.75C476.769 148.75 474.157 148.071 471.851 146.713C469.546 145.355 467.727 143.466 466.395 141.046C465.076 138.638 464.416 135.942 464.416 132.958V85.9278H448.624V133.976C448.624 139.547 449.969 144.523 452.659 148.903C455.336 153.271 459.018 156.716 463.705 159.239C468.393 161.749 473.721 163.004 479.689 163.004ZM564.701 85.9278L539.053 161.775H556.151L561.242 146.29H589.042L594.133 161.775H611.346L585.68 85.9278H564.701ZM584.661 132.554H565.623L575.19 103.333L584.661 132.554ZM642.603 85.9278V161.775H658.376V115.648L692.496 161.775H704.714V85.9278H688.922V131.017L654.726 85.9278H642.603ZM755.221 99.664V161.775H770.994V99.664H789.937V85.9278H735.971V99.664H755.221ZM856.12 163.004C861.82 163.004 867.116 162.018 872.008 160.046C876.888 158.074 881.147 155.307 884.784 151.747C888.421 148.186 891.258 144.03 893.295 139.278C895.331 134.527 896.349 129.365 896.349 123.794C896.349 118.235 895.344 113.08 893.333 108.328C891.335 103.564 888.517 99.4207 884.88 95.8986C881.255 92.3636 876.997 89.6164 872.104 87.6568C867.225 85.6844 861.897 84.6982 856.12 84.6982C850.357 84.6982 845.029 85.6844 840.136 87.6568C835.244 89.6164 830.985 92.3636 827.361 95.8986C823.723 99.4207 820.906 103.564 818.908 108.328C816.91 113.08 815.911 118.235 815.911 123.794C815.911 129.365 816.929 134.527 818.965 139.278C821.002 144.03 823.832 148.186 827.457 151.747C831.094 155.307 835.353 158.074 840.232 160.046C845.125 162.018 850.421 163.004 856.12 163.004ZM856.12 148.75C851.51 148.75 847.353 147.68 843.652 145.541C839.951 143.402 837.03 140.463 834.892 136.723C832.753 132.996 831.683 128.686 831.683 123.794C831.683 118.901 832.753 114.591 834.892 110.864C837.03 107.137 839.951 104.217 843.652 102.104C847.353 100.003 851.51 98.9532 856.12 98.9532C860.731 98.9532 864.887 100.003 868.589 102.104C872.29 104.217 875.21 107.137 877.349 110.864C879.488 114.591 880.557 118.901 880.557 123.794C880.557 128.686 879.488 132.996 877.349 136.723C875.21 140.463 872.29 143.402 868.589 145.541C864.887 147.68 860.731 148.75 856.12 148.75ZM930.969 85.9278V161.775H946.741V134.283H957.942L973.311 161.775H991.043L973.733 131.536C977.729 129.704 980.918 126.97 983.301 123.333C985.67 119.708 986.855 115.315 986.855 110.154C986.855 104.864 985.702 100.42 983.397 96.8207C981.091 93.2218 977.922 90.5065 973.887 88.675C969.84 86.8435 965.204 85.9278 959.978 85.9278H930.969ZM960.074 120.547H946.741V99.664H960.074C963.404 99.664 966.068 100.612 968.066 102.507C970.077 104.416 971.082 106.964 971.082 110.154C971.082 113.279 970.077 115.789 968.066 117.684C966.068 119.593 963.404 120.547 960.074 120.547ZM1041.53 123.794L1016.69 161.775H1034.83L1050.39 138.145L1065.78 161.775H1083.89L1059.15 123.794L1083.89 85.9278H1065.78L1050.29 109.539L1034.83 85.9278H1016.69L1041.53 123.794Z" fill="#5A2499"/>
<path d="M340.798 203.698V219.451H344.064V209.884L351.153 219.451H353.689V203.698H350.403V213.073L343.295 203.698H340.798ZM364.601 203.698V219.451H375.186V216.608H367.886V212.977H374.764V210.134H367.886V206.561H375.186V203.698H364.601ZM389.191 211.575L384.024 219.451H387.789L391.017 214.553L394.206 219.451H397.971L392.842 211.575L397.971 203.698H394.206L390.997 208.616L387.789 203.698H384.024L389.191 211.575ZM410.574 206.561V219.451H413.84V206.561H417.778V203.698H406.578V206.561H410.574ZM428.095 212.305V215.052H437.605V212.305H428.095ZM456.643 219.701C457.54 219.701 458.43 219.554 459.314 219.259C460.197 218.952 460.991 218.484 461.696 217.857C462.413 217.229 462.983 216.442 463.406 215.494C463.828 214.546 464.04 213.425 464.04 212.132V210.48H456.547V213.227H460.754V213.265C460.754 213.995 460.562 214.623 460.178 215.148C459.794 215.66 459.288 216.057 458.66 216.339C458.033 216.608 457.36 216.743 456.643 216.743C455.708 216.743 454.889 216.525 454.184 216.089C453.467 215.654 452.903 215.052 452.493 214.284C452.084 213.502 451.879 212.599 451.879 211.575C451.879 210.537 452.077 209.634 452.474 208.866C452.859 208.11 453.403 207.508 454.107 207.06C454.812 206.625 455.625 206.407 456.547 206.407C457.508 206.407 458.321 206.657 458.987 207.156C459.666 207.656 460.14 208.29 460.409 209.058L463.29 207.656C463.021 206.887 462.573 206.183 461.946 205.542C461.305 204.915 460.53 204.409 459.621 204.025C458.724 203.64 457.7 203.448 456.547 203.448C455.407 203.448 454.357 203.653 453.396 204.063C452.436 204.46 451.591 205.024 450.861 205.754C450.143 206.471 449.593 207.329 449.208 208.328C448.811 209.314 448.613 210.396 448.613 211.575C448.613 212.74 448.818 213.816 449.228 214.802C449.637 215.788 450.207 216.647 450.937 217.377C451.667 218.107 452.519 218.677 453.492 219.086C454.466 219.496 455.516 219.701 456.643 219.701ZM474.203 203.698V219.451H484.788V216.608H477.468V212.977H484.365V210.134H477.468V206.561H484.788V203.698H474.203ZM494.778 203.698V219.451H498.063V209.884L505.133 219.451H507.669V203.698H504.403V213.073L497.295 203.698H494.778ZM534.7 203.698L529.378 219.451H532.932L533.989 216.243H539.752L540.809 219.451H544.382L539.061 203.698H534.7ZM538.849 213.381H534.892L536.871 207.329L538.849 213.381ZM559.655 219.701C560.77 219.701 561.749 219.503 562.595 219.106C563.427 218.709 564.08 218.151 564.554 217.434C565.041 216.717 565.284 215.904 565.284 214.994C565.284 212.881 564.023 211.415 561.5 210.595L558.484 209.634C557.523 209.301 557.043 208.763 557.043 208.021C557.043 207.508 557.248 207.098 557.657 206.791C558.067 206.471 558.599 206.311 559.252 206.311C560.02 206.311 560.699 206.516 561.288 206.926C561.878 207.348 562.319 207.925 562.614 208.655L565.284 207.444C564.849 206.202 564.093 205.229 563.017 204.524C561.929 203.807 560.674 203.448 559.252 203.448C558.189 203.448 557.241 203.647 556.409 204.044C555.589 204.441 554.949 204.992 554.488 205.696C554.039 206.4 553.815 207.22 553.815 208.155C553.815 210.294 555.077 211.78 557.6 212.612L560.674 213.611C561.609 213.931 562.076 214.456 562.076 215.186C562.076 215.686 561.871 216.089 561.461 216.397C561.064 216.704 560.533 216.858 559.867 216.858C559.021 216.858 558.253 216.608 557.561 216.109C556.857 215.622 556.313 214.95 555.928 214.091L553.239 215.283C553.546 216.192 554.014 216.973 554.641 217.626C555.269 218.292 556.018 218.805 556.889 219.163C557.747 219.522 558.669 219.701 559.655 219.701ZM581.461 219.701C582.575 219.701 583.555 219.503 584.4 219.106C585.232 218.709 585.892 218.151 586.379 217.434C586.853 216.717 587.09 215.904 587.09 214.994C587.09 212.881 585.828 211.415 583.305 210.595L580.289 209.634C579.328 209.301 578.848 208.763 578.848 208.021C578.848 207.508 579.053 207.098 579.463 206.791C579.872 206.471 580.41 206.311 581.076 206.311C581.832 206.311 582.504 206.516 583.094 206.926C583.683 207.348 584.131 207.925 584.438 208.655L587.09 207.444C586.654 206.202 585.898 205.229 584.823 204.524C583.747 203.807 582.498 203.448 581.076 203.448C580 203.448 579.053 203.647 578.233 204.044C577.401 204.441 576.76 204.992 576.312 205.696C575.851 206.4 575.62 207.22 575.62 208.155C575.62 210.294 576.882 211.78 579.405 212.612L582.479 213.611C583.414 213.931 583.881 214.456 583.881 215.186C583.881 215.686 583.683 216.089 583.286 216.397C582.876 216.704 582.338 216.858 581.672 216.858C580.827 216.858 580.058 216.608 579.366 216.109C578.675 215.622 578.131 214.95 577.733 214.091L575.044 215.283C575.351 216.192 575.819 216.973 576.446 217.626C577.074 218.292 577.823 218.805 578.694 219.163C579.552 219.522 580.474 219.701 581.461 219.701ZM597.56 203.698V219.451H608.145V216.608H600.826V212.977H607.723V210.134H600.826V206.561H608.145V203.698H597.56ZM620.959 206.561V219.451H624.245V206.561H628.183V203.698H616.983V206.561H620.959ZM649.873 203.698V219.451H653.158V209.077L657.903 215.436H658.326L663.09 209.308V219.451H666.356V203.698H663.186L658.191 210.537L653.043 203.698H649.873ZM681.457 203.698L676.116 219.451H679.67L680.727 216.243H686.509L687.566 219.451H691.12L685.798 203.698H681.457ZM685.587 213.381H681.649L683.628 207.329L685.587 213.381ZM700.899 203.698V219.451H704.165V209.884L711.254 219.451H713.79V203.698H710.504V213.073L703.415 203.698H700.899ZM728.871 203.698L723.549 219.451H727.103L728.16 216.243H733.923L734.98 219.451H738.553L733.232 203.698H728.871ZM733.02 213.381H729.063L731.042 207.329L733.02 213.381ZM755.248 219.701C756.145 219.701 757.035 219.554 757.919 219.259C758.802 218.952 759.596 218.484 760.301 217.857C761.018 217.229 761.588 216.442 762.011 215.494C762.433 214.546 762.645 213.425 762.645 212.132V210.48H755.152V213.227H759.359V213.265C759.359 213.995 759.167 214.623 758.783 215.148C758.399 215.66 757.893 216.057 757.265 216.339C756.638 216.608 755.965 216.743 755.248 216.743C754.313 216.743 753.493 216.525 752.789 216.089C752.072 215.654 751.508 215.052 751.098 214.284C750.689 213.502 750.484 212.599 750.484 211.575C750.484 210.537 750.682 209.634 751.079 208.866C751.463 208.11 752.008 207.508 752.712 207.06C753.417 206.625 754.23 206.407 755.152 206.407C756.113 206.407 756.926 206.657 757.592 207.156C758.271 207.656 758.745 208.29 759.014 209.058L761.895 207.656C761.626 206.887 761.178 206.183 760.551 205.542C759.91 204.915 759.135 204.409 758.226 204.025C757.329 203.64 756.305 203.448 755.152 203.448C754.012 203.448 752.962 203.653 752.001 204.063C751.041 204.46 750.202 205.024 749.485 205.754C748.755 206.471 748.197 207.329 747.813 208.328C747.416 209.314 747.218 210.396 747.218 211.575C747.218 212.74 747.423 213.816 747.832 214.802C748.242 215.788 748.812 216.647 749.542 217.377C750.272 218.107 751.124 218.677 752.097 219.086C753.071 219.496 754.121 219.701 755.248 219.701ZM772.807 203.698V219.451H783.393V216.608H776.073V212.977H782.97V210.134H776.073V206.561H783.393V203.698H772.807ZM793.383 203.698V219.451H796.668V209.077L801.413 215.436H801.836L806.601 209.308V219.451H809.867V203.698H806.697L801.702 210.537L796.553 203.698H793.383ZM820.798 203.698V219.451H831.383V216.608H824.083V212.977H830.961V210.134H824.083V206.561H831.383V203.698H820.798ZM841.373 203.698V219.451H844.659V209.884L851.728 219.451H854.264V203.698H850.998V213.073L843.89 203.698H841.373ZM868.039 206.561V219.451H871.305V206.561H875.243V203.698H864.043V206.561H868.039ZM902.658 219.701C903.772 219.701 904.752 219.503 905.598 219.106C906.43 218.709 907.09 218.151 907.576 217.434C908.05 216.717 908.287 215.904 908.287 214.994C908.287 212.881 907.026 211.415 904.503 210.595L901.486 209.634C900.526 209.301 900.045 208.763 900.045 208.021C900.045 207.508 900.25 207.098 900.66 206.791C901.07 206.471 901.608 206.311 902.274 206.311C903.03 206.311 903.702 206.516 904.291 206.926C904.88 207.348 905.322 207.925 905.617 208.655L908.287 207.444C907.852 206.202 907.096 205.229 906.02 204.524C904.944 203.807 903.696 203.448 902.274 203.448C901.198 203.448 900.25 203.647 899.431 204.044C898.598 204.441 897.951 204.992 897.49 205.696C897.042 206.4 896.818 207.22 896.818 208.155C896.818 210.294 898.079 211.78 900.603 212.612L903.676 213.611C904.611 213.931 905.079 214.456 905.079 215.186C905.079 215.686 904.874 216.089 904.464 216.397C904.067 216.704 903.536 216.858 902.87 216.858C902.024 216.858 901.256 216.608 900.564 216.109C899.873 215.622 899.328 214.95 898.931 214.091L896.242 215.283C896.549 216.192 897.016 216.973 897.644 217.626C898.272 218.292 899.021 218.805 899.892 219.163C900.75 219.522 901.672 219.701 902.658 219.701ZM926.634 219.701C927.813 219.701 928.908 219.496 929.919 219.086C930.944 218.677 931.828 218.107 932.571 217.377C933.326 216.634 933.915 215.769 934.338 214.783C934.761 213.797 934.972 212.727 934.972 211.575C934.972 210.422 934.767 209.353 934.357 208.366C933.935 207.38 933.352 206.516 932.609 205.773C931.853 205.043 930.97 204.473 929.958 204.063C928.933 203.653 927.825 203.448 926.634 203.448C925.43 203.448 924.322 203.653 923.311 204.063C922.299 204.473 921.415 205.043 920.659 205.773C919.904 206.516 919.321 207.38 918.911 208.366C918.489 209.353 918.277 210.422 918.277 211.575C918.277 212.727 918.489 213.797 918.911 214.783C919.334 215.769 919.923 216.634 920.679 217.377C921.434 218.107 922.318 218.677 923.33 219.086C924.342 219.496 925.443 219.701 926.634 219.701ZM926.634 216.743C925.674 216.743 924.809 216.525 924.041 216.089C923.272 215.641 922.664 215.026 922.216 214.245C921.78 213.477 921.562 212.587 921.562 211.575C921.562 210.563 921.78 209.666 922.216 208.885C922.664 208.117 923.272 207.508 924.041 207.06C924.809 206.625 925.674 206.407 926.634 206.407C927.595 206.407 928.459 206.625 929.228 207.06C929.996 207.508 930.598 208.117 931.034 208.885C931.482 209.666 931.706 210.563 931.706 211.575C931.706 212.587 931.482 213.477 931.034 214.245C930.598 215.026 929.996 215.641 929.228 216.089C928.459 216.525 927.595 216.743 926.634 216.743ZM945.442 203.698V219.451H955.375V216.608H948.708V203.698H945.442ZM970.974 219.701C972.204 219.701 973.305 219.445 974.279 218.933C975.252 218.408 976.021 217.69 976.584 216.781C977.135 215.872 977.41 214.841 977.41 213.688V203.698H974.144V213.477C974.144 214.091 974.003 214.649 973.722 215.148C973.453 215.648 973.081 216.038 972.607 216.32C972.134 216.602 971.589 216.743 970.974 216.743C970.36 216.743 969.815 216.602 969.341 216.32C968.868 216.038 968.49 215.648 968.208 215.148C967.939 214.649 967.805 214.091 967.805 213.477V203.698H964.519V213.688C964.519 214.841 964.801 215.872 965.365 216.781C965.915 217.69 966.677 218.408 967.651 218.933C968.624 219.445 969.732 219.701 970.974 219.701ZM990.974 206.561V219.451H994.259V206.561H998.178V203.698H986.978V206.561H990.974ZM1007.96 203.698V219.451H1011.22V203.698H1007.96ZM1030.03 219.701C1031.22 219.701 1032.32 219.496 1033.34 219.086C1034.35 218.677 1035.23 218.107 1035.99 217.377C1036.74 216.634 1037.33 215.769 1037.75 214.783C1038.18 213.797 1038.39 212.727 1038.39 211.575C1038.39 210.422 1038.18 209.353 1037.75 208.366C1037.34 207.38 1036.76 206.516 1036.01 205.773C1035.25 205.043 1034.37 204.473 1033.35 204.063C1032.34 203.653 1031.23 203.448 1030.03 203.448C1028.84 203.448 1027.73 203.653 1026.71 204.063C1025.7 204.473 1024.81 205.043 1024.06 205.773C1023.31 206.516 1022.73 207.38 1022.31 208.366C1021.9 209.353 1021.69 210.422 1021.69 211.575C1021.69 212.727 1021.9 213.797 1022.33 214.783C1022.75 215.769 1023.33 216.634 1024.08 217.377C1024.83 218.107 1025.72 218.677 1026.75 219.086C1027.76 219.496 1028.85 219.701 1030.03 219.701ZM1030.03 216.743C1029.07 216.743 1028.21 216.525 1027.44 216.089C1026.67 215.641 1026.07 215.026 1025.63 214.245C1025.18 213.477 1024.96 212.587 1024.96 211.575C1024.96 210.563 1025.18 209.666 1025.63 208.885C1026.07 208.117 1026.67 207.508 1027.44 207.06C1028.21 206.625 1029.07 206.407 1030.03 206.407C1030.99 206.407 1031.86 206.625 1032.62 207.06C1033.39 207.508 1033.99 208.117 1034.43 208.885C1034.88 209.666 1035.1 210.563 1035.1 211.575C1035.1 212.587 1034.88 213.477 1034.43 214.245C1033.99 215.026 1033.39 215.641 1032.62 216.089C1031.86 216.525 1030.99 216.743 1030.03 216.743ZM1048.84 203.698V219.451H1052.12V209.884L1059.19 219.451H1061.73V203.698H1058.46V213.073L1051.36 203.698H1048.84ZM1078.39 219.701C1079.5 219.701 1080.47 219.503 1081.31 219.106C1082.15 218.709 1082.81 218.151 1083.29 217.434C1083.77 216.717 1084.02 215.904 1084.02 214.994C1084.02 212.881 1082.75 211.415 1080.23 210.595L1077.2 209.634C1076.25 209.301 1075.77 208.763 1075.77 208.021C1075.77 207.508 1075.97 207.098 1076.37 206.791C1076.78 206.471 1077.32 206.311 1077.98 206.311C1078.74 206.311 1079.42 206.516 1080.02 206.926C1080.61 207.348 1081.05 207.925 1081.34 208.655L1084.02 207.444C1083.57 206.202 1082.8 205.229 1081.73 204.524C1080.65 203.807 1079.4 203.448 1077.98 203.448C1076.91 203.448 1075.96 203.647 1075.14 204.044C1074.32 204.441 1073.68 204.992 1073.22 205.696C1072.76 206.4 1072.53 207.22 1072.53 208.155C1072.53 210.294 1073.79 211.78 1076.31 212.612L1079.4 213.611C1080.33 213.931 1080.79 214.456 1080.79 215.186C1080.79 215.686 1080.59 216.089 1080.19 216.397C1079.8 216.704 1079.26 216.858 1078.6 216.858C1077.75 216.858 1076.98 216.608 1076.27 216.109C1075.58 215.622 1075.04 214.95 1074.64 214.091L1071.97 215.283C1072.28 216.192 1072.74 216.973 1073.37 217.626C1074 218.292 1074.74 218.805 1075.6 219.163C1076.47 219.522 1077.4 219.701 1078.39 219.701Z" fill="#5A2499"/>
</svg>
